<?xml version="1.0" encoding="UTF-8" standalone="no"?>
<!DOCTYPE svg PUBLIC "-//W3C//DTD SVG 1.1//EN" "http://www.w3.org/Graphics/SVG/1.1/DTD/svg11.dtd">
<svg width="100%" height="100%" viewBox="0 0 1772 1772" version="1.1" xmlns="http://www.w3.org/2000/svg" xmlns:xlink="http://www.w3.org/1999/xlink" xml:space="preserve" xmlns:serif="http://www.serif.com/" style="fill-rule:evenodd;clip-rule:evenodd;stroke-linecap:round;stroke-linejoin:round;stroke-miterlimit:1.5;">
    <g transform="matrix(1,0,0,1.12553,1.73149,-95.6812)">
        <path d="M1215.88,369.081C1215.88,362.262 1209.65,356.725 1201.98,356.725L1174.16,356.725C1166.49,356.725 1160.26,362.262 1160.26,369.081L1160.26,1455.99C1160.26,1462.81 1166.49,1468.34 1174.16,1468.34L1201.98,1468.34C1209.65,1468.34 1215.88,1462.81 1215.88,1455.99L1215.88,369.081Z" style="fill:rgb(207,208,210);stroke:rgb(2,0,0);stroke-width:9.78px;"/>
    </g>
    <g transform="matrix(2.26936,0,0,2.20374,-1762.62,-898.951)">
        <rect x="1186.9" y="562.878" width="234.442" height="17.069" style="fill:rgb(0,0,18);stroke:rgb(2,0,0);stroke-width:4.66px;"/>
    </g>
    <g transform="matrix(2.26936,0,0,2.62187,-1754.51,-1109.84)">
        <circle cx="1183.37" cy="562.655" r="58.621" style="fill:rgb(0,0,18);"/>
        <clipPath id="_clip1">
            <circle cx="1183.37" cy="562.655" r="58.621"/>
        </clipPath>
        <g clip-path="url(#_clip1)">
            <g transform="matrix(0.440653,0,0,0.381407,748.455,425.057)">
                <ellipse cx="955.226" cy="360.766" rx="108.797" ry="204.65" style="fill:rgb(6,0,0);fill-opacity:0.1;"/>
            </g>
        </g>
        <circle cx="1183.37" cy="562.655" r="58.621" style="fill:none;stroke:rgb(2,0,0);stroke-width:4.25px;"/>
    </g>
    <g transform="matrix(1.58851,0,0,2.62187,-416.776,-1109.84)">
        <circle cx="1183.37" cy="562.655" r="58.621" style="fill:rgb(0,0,18);"/>
        <clipPath id="_clip2">
            <circle cx="1183.37" cy="562.655" r="58.621"/>
        </clipPath>
        <g clip-path="url(#_clip2)">
            <g transform="matrix(0.62952,0,0,0.381407,549.946,425.057)">
                <ellipse cx="955.226" cy="360.766" rx="108.797" ry="204.65" style="fill:rgb(6,0,0);fill-opacity:0.1;"/>
            </g>
        </g>
        <circle cx="1183.37" cy="562.655" r="58.621" style="fill:none;stroke:rgb(2,0,0);stroke-width:4.81px;"/>
    </g>
    <g transform="matrix(1.11165,0,0,1.14271,-240.667,-101.065)">
        <path d="M1260.22,882.487L1260.22,726.023C1105.54,759.76 938.104,770.912 738.987,726.023L738.987,674.838C738.987,653.204 721.423,635.639 699.788,635.639L358.231,635.639C336.597,635.639 319.033,653.204 319.033,674.838L319.033,990.357C319.033,1011.99 336.597,1029.56 358.231,1029.56L699.788,1029.56C721.423,1029.56 738.987,1011.99 738.987,990.357L738.987,882.487L1260.22,882.487Z" style="fill:rgb(207,208,210);"/>
        <clipPath id="_clip3">
            <path d="M1260.22,882.487L1260.22,726.023C1105.54,759.76 938.104,770.912 738.987,726.023L738.987,674.838C738.987,653.204 721.423,635.639 699.788,635.639L358.231,635.639C336.597,635.639 319.033,653.204 319.033,674.838L319.033,990.357C319.033,1011.99 336.597,1029.56 358.231,1029.56L699.788,1029.56C721.423,1029.56 738.987,1011.99 738.987,990.357L738.987,882.487L1260.22,882.487Z"/>
        </clipPath>
        <g clip-path="url(#_clip3)">
            <g transform="matrix(0.899562,0,0,-0.87511,216.495,1550.72)">
                <path d="M1030.04,829.493C1030.04,829.493 872.264,765.068 578.752,829.493C317.586,886.818 451.076,1007.14 84.248,984.501C-282.58,961.865 -0,1189.98 -0,1189.98L1099.64,1183.13L1030.04,829.493Z" style="fill:rgb(6,0,0);fill-opacity:0.1;"/>
            </g>
        </g>
        <path d="M1260.22,882.487L1260.22,726.023C1105.54,759.76 938.104,770.912 738.987,726.023L738.987,674.838C738.987,653.204 721.423,635.639 699.788,635.639L358.231,635.639C336.597,635.639 319.033,653.204 319.033,674.838L319.033,990.357C319.033,1011.99 336.597,1029.56 358.231,1029.56L699.788,1029.56C721.423,1029.56 738.987,1011.99 738.987,990.357L738.987,882.487L1260.22,882.487Z" style="fill:none;stroke:rgb(2,0,0);stroke-width:9.24px;"/>
    </g>
    <g transform="matrix(-1.40442,-2.00757e-16,1.87231e-16,-1.74701,854.944,1578.69)">
        <path d="M574.117,663.666C576.001,666.649 575.823,670.205 573.646,673.056C571.469,675.908 567.606,677.646 563.444,677.646C490.602,677.646 234.954,677.646 162.112,677.646C157.95,677.646 154.087,675.908 151.91,673.056C149.733,670.205 149.555,666.649 151.44,663.666C168.06,637.354 203.682,580.964 218.857,556.941C223.201,550.063 231.984,545.73 241.579,545.73L483.977,545.73C493.572,545.73 502.355,550.063 506.699,556.941C521.875,580.964 557.496,637.354 574.117,663.666Z" style="fill:rgb(0,0,18);"/>
        <clipPath id="_clip4">
            <path d="M574.117,663.666C576.001,666.649 575.823,670.205 573.646,673.056C571.469,675.908 567.606,677.646 563.444,677.646C490.602,677.646 234.954,677.646 162.112,677.646C157.95,677.646 154.087,675.908 151.91,673.056C149.733,670.205 149.555,666.649 151.44,663.666C168.06,637.354 203.682,580.964 218.857,556.941C223.201,550.063 231.984,545.73 241.579,545.73L483.977,545.73C493.572,545.73 502.355,550.063 506.699,556.941C521.875,580.964 557.496,637.354 574.117,663.666Z"/>
        </clipPath>
        <g clip-path="url(#_clip4)">
            <g transform="matrix(-0.635545,7.78318e-17,-6.92496e-17,-0.565466,639.331,908.434)">
                <path d="M99.082,528.523C208.652,491.142 314.064,478.653 425.691,516.653C520.586,548.957 562.57,550.648 656.523,521.921C687.821,512.352 717.177,497.187 748.631,488.152C754.373,486.503 774.373,478.922 780.016,482.444C802.484,496.467 801.211,537.977 800.721,560.547C800.24,582.688 797.491,604.683 795.493,626.718C791.049,675.729 791.552,696.269 732.655,713.057C678.404,728.52 621.729,725.265 566.769,716.285C491.816,704.04 418.633,683.14 344.11,668.708C298.66,659.906 252.639,653.864 206.361,652.097C183.485,651.224 157.57,657.79 136.913,645.408C100.324,623.477 95.427,575.27 94.344,536.617" style="fill:rgb(6,0,0);fill-opacity:0.1;"/>
            </g>
        </g>
        <path d="M574.117,663.666C576.001,666.649 575.823,670.205 573.646,673.056C571.469,675.908 567.606,677.646 563.444,677.646C490.602,677.646 234.954,677.646 162.112,677.646C157.95,677.646 154.087,675.908 151.91,673.056C149.733,670.205 149.555,666.649 151.44,663.666C168.06,637.354 203.682,580.964 218.857,556.941C223.201,550.063 231.984,545.73 241.579,545.73L483.977,545.73C493.572,545.73 502.355,550.063 506.699,556.941C521.875,580.964 557.496,637.354 574.117,663.666Z" style="fill:none;stroke:rgb(2,0,0);stroke-width:6.57px;"/>
    </g>
    <g transform="matrix(1,0,0,1,3.2687,-22.182)">
        <path d="M219.607,1253.77L219.86,1253.77C198.312,1253.77 195.819,1271.26 195.819,1292.81C195.819,1314.36 213.312,1331.85 234.86,1331.85L449.503,1331.85C471.05,1331.85 488.544,1314.36 488.544,1292.81C488.544,1271.35 486.186,1253.9 464.755,1253.77L464.503,1253.77C486.05,1253.77 488.544,1236.27 488.544,1214.73C488.544,1193.26 486.186,1175.82 464.755,1175.69L464.503,1175.69C486.05,1175.69 488.544,1158.19 488.544,1136.64C488.544,1115.1 471.05,1097.6 449.503,1097.6L234.86,1097.6C213.312,1097.6 195.819,1115.1 195.819,1136.64C195.819,1158.11 198.176,1175.55 219.607,1175.68L219.86,1175.69C198.312,1175.69 195.819,1193.18 195.819,1214.73C195.819,1236.19 198.176,1253.63 219.607,1253.77Z" style="fill:rgb(0,0,18);stroke:rgb(2,0,0);stroke-width:10.42px;"/>
    </g>
    <path d="M1226.68,334.027C1226.68,330.291 1223.65,327.258 1219.91,327.258L1159.69,327.258C1155.96,327.258 1152.92,330.291 1152.92,334.027L1152.92,387.973C1152.92,391.708 1155.96,394.741 1159.69,394.741L1219.91,394.741C1223.65,394.741 1226.68,391.708 1226.68,387.973L1226.68,334.027Z" style="fill:rgb(0,0,18);stroke:rgb(2,0,0);stroke-width:10.42px;"/>
    <g transform="matrix(-0.946586,0,0,1.43696,2344.99,-609.505)">
        <path d="M1532.11,1470.7C1538.41,1477.8 1547.6,1482.27 1557.83,1482.27L1645.23,1482.27C1664.2,1482.27 1679.6,1466.87 1679.6,1447.89C1679.6,1428.92 1664.2,1413.52 1645.23,1413.52L1557.83,1413.52C1548.01,1413.52 1539.14,1417.64 1532.88,1424.25L1193.87,1426.18L1077.89,1424.66L903.089,1196.58L706.042,1212.56L793.998,1419.93L777.349,1526.96L935.942,1578.83L1031.72,1470.7L1532.11,1470.7Z" style="fill:rgb(3,0,15);stroke:rgb(2,0,0);stroke-width:8.56px;"/>
    </g>
    <g transform="matrix(2.26936,0,0,2.62187,-1389.41,-1205.59)">
        <path d="M1214.15,716.455C1214.15,697.915 1196.77,682.863 1175.35,682.863L1097.73,682.863C1076.31,682.863 1058.91,697.915 1058.91,716.455L1058.91,883.676C1058.91,902.216 1076.31,917.268 1097.73,917.268L1175.35,917.268C1196.77,917.268 1214.15,902.216 1214.15,883.676L1214.15,716.455Z" style="fill:rgb(207,208,210);stroke:rgb(2,0,0);stroke-width:4.25px;"/>
    </g>
    <g transform="matrix(1.10845,0,0,1.10845,-128.573,-88.4356)">
        <circle cx="1189.38" cy="815.444" r="124.519" style="fill:rgb(0,0,18);stroke:rgb(2,0,0);stroke-width:9.4px;"/>
    </g>
    <g transform="matrix(0.818426,0,0,0.818426,216.378,148.063)">
        <circle cx="1189.38" cy="815.444" r="124.519" style="fill:rgb(207,208,210);"/>
        <clipPath id="_clip5">
            <circle cx="1189.38" cy="815.444" r="124.519"/>
        </clipPath>
        <g clip-path="url(#_clip5)">
            <circle cx="1189.38" cy="815.444" r="124.519" style="fill-opacity:0.1;"/>
            <g transform="matrix(1,0,0,1,14.3526,17.1661)">
                <circle cx="1189.38" cy="815.444" r="124.519" style="fill:rgb(207,208,210);"/>
            </g>
        </g>
        <circle cx="1189.38" cy="815.444" r="124.519" style="fill:none;stroke:rgb(2,0,0);stroke-width:12.73px;"/>
    </g>
    <g transform="matrix(0.495057,-0.495057,0.257372,0.257372,386.217,1198.29)">
        <path d="M1203.1,845.937C1195.53,845.937 1189.38,834.116 1189.38,819.556C1189.38,804.996 1195.53,793.175 1203.1,793.175L1313.69,793.175L1327.41,819.556L1313.69,845.937L1203.1,845.937Z" style="fill:rgb(3,0,15);stroke:rgb(2,0,0);stroke-width:18.67px;"/>
    </g>
    <path d="M1250.4,1449.82C1250.4,1435.5 1238.77,1423.87 1224.45,1423.87L1158.94,1423.87C1144.62,1423.87 1133,1435.5 1133,1449.82L1133,1501.71C1133,1516.03 1144.62,1527.66 1158.94,1527.66L1224.45,1527.66C1238.77,1527.66 1250.4,1516.03 1250.4,1501.71L1250.4,1449.82Z" style="fill:rgb(3,0,15);stroke:rgb(2,0,0);stroke-width:10.42px;"/>
</svg>
